<?xml version="1.0" standalone="no"?>
<!DOCTYPE svg PUBLIC "-//W3C//DTD SVG 20010904//EN"
 "http://www.w3.org/TR/2001/REC-SVG-20010904/DTD/svg10.dtd">
<svg version="1.0" xmlns="http://www.w3.org/2000/svg"
 width="256.000000pt" height="256.000000pt" viewBox="0 0 256.000000 256.000000"
 preserveAspectRatio="xMidYMid meet">
<metadata>
Created by potrace 1.11, written by Peter Selinger 2001-2013
</metadata>
<g transform="translate(0.000000,256.000000) scale(0.100000,-0.100000)"
fill="#000000" stroke="none">
<path d="M67 2540 c-11 -16 -13 -212 -13 -1177 1 -1156 1 -1158 22 -1203 26
-56 71 -103 126 -132 l43 -23 1116 -3 c1033 -2 1117 -1 1130 14 21 25 23 2282
2 2310 -11 15 -28 19 -91 20 -42 1 -84 3 -94 3 -14 1 -16 12 -14 69 3 74 -7
121 -26 134 -7 4 -502 8 -1100 8 -1068 0 -1087 0 -1101 -20z m2118 -1151 l0
-1064 -1012 -3 -1013 -2 0 1064 c0 701 3 1065 10 1068 5 2 461 3 1012 2 l1003
0 0 -1065z m215 -213 c0 -1005 -1 -1064 -17 -1067 -10 -3 -486 -4 -1058 -3
-1152 1 -1071 -4 -1130 66 -22 27 -24 33 -11 38 8 3 479 5 1046 4 996 -1 1031
0 1047 18 16 18 17 92 19 1011 0 546 2 993 3 995 0 1 24 2 51 2 l50 0 0 -1064z"/>
<path d="M298 2343 c-9 -2 -20 -14 -24 -26 -4 -12 -8 -121 -8 -242 -1 -214 0
-221 21 -242 27 -28 34 -28 64 -4 22 18 23 24 23 160 0 77 3 137 7 133 3 -4
54 -71 112 -149 59 -78 111 -144 117 -148 23 -14 49 -12 66 6 15 17 17 45 18
247 1 222 1 228 -21 250 -27 27 -34 27 -64 3 -22 -17 -23 -26 -25 -147 0 -71
-2 -133 -2 -138 -1 -5 -51 57 -112 137 -93 124 -137 171 -152 166 -2 -1 -11
-3 -20 -6z"/>
<path d="M829 2336 l-24 -12 -3 -235 c-2 -190 0 -238 12 -254 12 -16 28 -20
102 -22 126 -3 165 16 144 71 -11 30 -28 36 -99 36 l-57 0 2 38 c1 20 3 44 3
52 1 12 15 16 62 17 68 1 100 21 93 56 -7 38 -30 51 -94 51 -65 0 -62 -3 -63
66 l-1 35 68 5 c50 4 71 10 81 23 17 23 11 58 -12 71 -26 15 -185 17 -214 2z"/>
<path d="M1140 2333 c-28 -20 -28 -21 45 -309 48 -190 65 -222 109 -208 29 9
25 3 61 106 l32 92 30 -90 c23 -70 35 -92 55 -102 14 -6 33 -10 41 -6 15 6 43
63 51 106 2 13 14 61 26 108 12 47 24 93 26 103 2 10 6 27 9 37 8 25 14 56 21
106 6 37 4 44 -20 59 -24 16 -28 16 -51 1 -22 -15 -37 -49 -49 -117 -10 -57
-39 -148 -46 -144 -4 3 -10 19 -14 36 -3 17 -15 51 -25 75 -18 40 -23 44 -54
44 -39 0 -48 -14 -83 -120 l-17 -55 -33 134 c-32 131 -42 151 -81 157 -6 1
-21 -5 -33 -13z"/>
<path d="M1870 2342 c-72 -12 -114 -77 -108 -166 6 -93 55 -145 141 -149 58
-3 67 -11 67 -63 l0 -44 -89 0 c-97 0 -113 -8 -113 -56 0 -42 15 -48 121 -50
160 -2 196 28 189 160 -5 105 -53 157 -144 159 -50 1 -65 13 -66 55 -1 48 7
52 97 52 91 0 115 11 115 54 0 38 -26 51 -109 52 -42 0 -87 -1 -101 -4z"/>
<path d="M287 1689 c-21 -16 -21 -22 -21 -359 0 -324 1 -343 19 -356 15 -11
93 -14 410 -14 367 0 393 1 408 18 15 17 17 56 17 353 0 274 -3 339 -14 355
-14 18 -30 19 -406 20 -357 1 -394 -1 -413 -17z m727 -352 c0 -175 -4 -261
-11 -265 -6 -4 -150 -7 -320 -6 l-308 0 0 267 -1 267 320 -2 320 -3 0 -258z"/>
<path d="M1300 1693 c-24 -17 -26 -41 -4 -71 l15 -22 344 0 344 0 15 22 c21
30 20 45 -4 66 -19 15 -53 17 -355 18 -273 1 -339 -2 -355 -13z"/>
<path d="M1315 1487 c-48 -16 -44 -81 6 -94 16 -5 173 -8 349 -7 291 0 321 2
339 18 22 20 20 51 -4 75 -12 12 -65 15 -340 15 -179 1 -336 -3 -350 -7z"/>
<path d="M1297 1262 c-10 -10 -17 -28 -17 -39 0 -46 12 -48 373 -49 315 -1
341 0 358 17 10 10 16 27 14 40 -10 50 -4 49 -370 49 -319 0 -343 -1 -358 -18z"/>
<path d="M1308 1056 c-29 -14 -35 -52 -12 -77 16 -18 35 -19 360 -19 l343 0
15 22 c21 30 20 45 -4 66 -19 15 -53 17 -350 18 -229 1 -336 -2 -352 -10z"/>
<path d="M364 852 c-40 -7 -56 -52 -30 -87 12 -17 34 -18 342 -18 181 0 341 3
355 6 37 9 48 53 20 80 -18 19 -35 20 -343 21 -179 1 -333 -1 -344 -2z"/>
<path d="M1330 852 c-45 -6 -63 -50 -36 -87 12 -17 34 -18 354 -18 312 0 343
1 361 17 21 20 20 51 -3 75 -13 12 -67 14 -333 15 -175 1 -329 0 -343 -2z"/>
<path d="M337 622 c-10 -10 -17 -28 -17 -39 0 -46 12 -48 373 -49 316 -1 341
0 358 17 10 10 16 27 14 40 -10 50 -4 49 -370 49 -319 0 -343 -1 -358 -18z"/>
<path d="M1297 622 c-10 -10 -17 -28 -17 -39 0 -46 12 -48 373 -49 314 -1 342
1 358 17 10 10 16 27 14 40 -10 50 -4 49 -370 49 -319 0 -343 -1 -358 -18z"/>
</g>
</svg>
